<svg width="72.000000" height="38.000000" viewBox="0 0 71 30" fill="none" xmlns="http://www.w3.org/2000/svg" xmlns:xlink="http://www.w3.org/1999/xlink">
	<path id="logo" d="M28.77 1.03C27.65 -0.04 26.25 -0.58 24.56 -0.58Q22.87 -0.58 21.58 0.13Q20.92 0.49 20.37 1.03Q19.7 1.67 19.3 2.45Q18.71 3.61 18.71 5.07Q18.71 6.43 19.25 7.53Q19.65 8.36 20.35 9.04C21.45 10.09 22.83 10.62 24.47 10.62C26.2 10.62 27.62 10.09 28.75 9.04C29.89 7.98 30.46 6.65 30.46 5.04Q30.46 3.69 29.93 2.6Q29.51 1.73 28.77 1.03ZM1.71 5.2L2.9 5.92Q4.26 6.76 4.33 7.7Q4.34 7.75 4.34 7.81Q4.34 8.08 4.24 8.31Q4.12 8.61 3.85 8.84C3.52 9.11 3.12 9.25 2.63 9.25Q2.22 9.25 1.84 9.15Q0.66 8.86 -0.3 7.64L-0.3 9.63Q0.44 10.19 1.28 10.43Q1.94 10.62 2.64 10.62Q3.74 10.62 4.52 10.12Q4.73 9.98 4.92 9.8Q5.25 9.5 5.45 9.13Q5.81 8.5 5.81 7.67Q5.81 7.16 5.66 6.71Q5.26 5.5 3.81 4.64L2.61 3.93Q1.81 3.46 1.45 3.03Q1.17 2.7 1.11 2.34Q1.09 2.23 1.09 2.11Q1.09 1.89 1.17 1.7Q1.28 1.42 1.58 1.21C1.91 0.97 2.33 0.85 2.84 0.85Q3.09 0.85 3.34 0.89Q4.42 1.06 5.38 1.98L5.38 0.21Q4.79 -0.19 4.15 -0.38Q3.53 -0.56 2.87 -0.56Q1.7 -0.56 0.89 -0.02Q0.71 0.1 0.54 0.25Q0.19 0.56 -0.02 0.95Q-0.35 1.56 -0.35 2.34Q-0.35 2.9 -0.15 3.37Q-0.04 3.63 0.12 3.86Q0.6 4.52 1.71 5.2ZM32.28 -0.43L32.28 10.5L33.85 10.5L33.85 5.76L35.01 5.76C36.04 5.76 36.83 5.65 37.39 5.43C37.94 5.21 38.37 4.85 38.69 4.36C39.01 3.87 39.17 3.31 39.17 2.67C39.17 1.73 38.86 0.97 38.24 0.41C37.62 -0.15 36.79 -0.43 35.75 -0.43L32.28 -0.43ZM16.78 -0.42L15.22 -0.42L15.22 4.3L9.09 4.3L9.09 -0.42L7.53 -0.42L7.53 10.5L9.09 10.5L9.09 5.75L15.22 5.75L15.22 10.5L16.78 10.5L16.78 -0.42ZM22.36 1.46Q23.33 0.91 24.62 0.91Q25.65 0.91 26.5 1.31Q27.11 1.6 27.62 2.1C28.44 2.88 28.85 3.85 28.85 5.01C28.85 6.2 28.44 7.19 27.62 7.99Q27.16 8.44 26.6 8.72Q25.7 9.18 24.57 9.18Q23.42 9.18 22.5 8.71Q21.98 8.44 21.54 8.01Q21.03 7.51 20.73 6.91Q20.33 6.09 20.33 5.07Q20.33 3.92 20.81 3.03Q21.09 2.51 21.53 2.08Q21.91 1.71 22.36 1.46ZM33.85 0.96L35.47 0.96Q36.73 0.96 37.23 1.57Q37.55 1.97 37.55 2.64Q37.55 3.28 37.24 3.7Q37.15 3.82 37.03 3.92C36.69 4.22 36.2 4.37 35.57 4.37L33.85 4.37L33.85 0.96ZM9.28 28.66C9.92 28.1 10.25 27.36 10.25 26.42C10.25 25.72 10.05 25.14 9.66 24.7C9.27 24.25 8.71 23.88 7.97 23.59C8.21 23.5 8.44 23.35 8.67 23.14C8.9 22.92 9.1 22.64 9.25 22.31Q9.3 22.22 9.33 22.12Q9.49 21.69 9.49 21.21Q9.49 20.77 9.34 20.39Q9.31 20.29 9.26 20.2C9.11 19.89 8.88 19.63 8.57 19.4Q8.11 19.06 7.35 18.86C6.85 18.73 6.27 18.67 5.59 18.67L0.35 18.67L0.35 29.5L6.61 29.5C7.76 29.5 8.65 29.22 9.28 28.66ZM20.42 29.5L23.76 29.5L18.99 18.67L15.38 18.67L10.59 29.5L13.93 29.5L14.83 27.3L19.53 27.3L20.42 29.5ZM32.6 29.5L36.59 29.5L31.9 23.74L35.93 18.67L32.39 18.67L28.46 23.51L28.46 18.67L25.2 18.67L25.2 29.5L28.46 29.5L28.46 24.42L32.6 29.5ZM38.01 29.5L46.17 29.5L46.17 27.32L41.28 27.32L41.28 25L45.82 25L45.82 22.82L41.28 22.82L41.28 20.84L46.04 20.84L46.04 18.67L38.01 18.67L38.01 29.5ZM55.35 29.5L58.85 29.5L57.76 27.14C57.37 26.29 57.06 25.73 56.83 25.46C56.61 25.17 56.32 24.93 55.97 24.73C56.26 24.57 56.53 24.41 56.76 24.24C57 24.07 57.22 23.79 57.42 23.42C57.64 23.04 57.75 22.57 57.75 22.03C57.75 21.56 57.62 21.06 57.36 20.54C57.11 20.02 56.7 19.58 56.13 19.21C55.55 18.85 54.82 18.67 53.92 18.67L48.37 18.67L48.37 29.5L51.64 29.5L51.64 25.27L52 25.27Q52.57 25.27 52.92 25.41C53.16 25.5 53.4 25.71 53.65 26.03C53.9 26.36 54.18 26.87 54.5 27.57L55.35 29.5ZM66.19 24.53L70.43 18.67L66.97 18.67L64.48 22.07L62 18.67L58.6 18.67L62.92 24.6L62.92 29.5L66.19 29.5L66.19 24.53ZM5.92 20.75C6.26 20.92 6.43 21.26 6.43 21.78C6.43 22.3 6.27 22.65 5.93 22.82Q5.44 23.08 4.32 23.08L3.62 23.08L3.62 20.49L4.31 20.49Q5.4 20.49 5.92 20.75ZM53.92 21.04C54.25 21.24 54.42 21.59 54.42 22.09Q54.42 22.71 54.11 22.99Q54.05 23.05 53.97 23.1C53.68 23.27 53.14 23.35 52.34 23.35L51.64 23.35L51.64 20.75L52.32 20.75C53.06 20.75 53.6 20.84 53.92 21.04ZM17.2 21.46L18.78 25.42L15.6 25.42L17.2 21.46ZM6.75 25.54Q6.96 25.84 6.96 26.29Q6.96 26.73 6.76 27.04Q6.32 27.67 4.95 27.67L3.62 27.67L3.62 24.9L4.95 24.9Q6.31 24.9 6.75 25.54Z" fill="#31261A" fill-opacity="1.000000" fill-rule="evenodd"/>
</svg>
